<svg height="1886" width="720" xmlns="http://www.w3.org/2000/svg">
<rect height="1886" fill="#555" width="720"></rect>
<text fill="#7f7" font-family="Courier New" font-size="12" xml:space="preserve">
<tspan x="10" y="26">9 megabytes installed</tspan>
<tspan x="10" y="42"></tspan>
<tspan x="10" y="58">node_modules</tspan>
<tspan x="10" y="74">└─┬ mupx@1.5.3 </tspan>
<tspan x="10" y="90">  ├─┬ archiver@0.14.4 </tspan>
<tspan x="10" y="106">  │ ├── buffer-crc32@0.2.13 </tspan>
<tspan x="10" y="122">  │ ├─┬ glob@4.3.5 </tspan>
<tspan x="10" y="138">  │ │ ├─┬ inflight@1.0.6 </tspan>
<tspan x="10" y="154">  │ │ │ └── wrappy@1.0.2 </tspan>
<tspan x="10" y="170">  │ │ ├── inherits@2.0.3 </tspan>
<tspan x="10" y="186">  │ │ ├─┬ minimatch@2.0.10 </tspan>
<tspan x="10" y="202">  │ │ │ └─┬ brace-expansion@1.1.7 </tspan>
<tspan x="10" y="218">  │ │ │   ├── balanced-match@0.4.2 </tspan>
<tspan x="10" y="234">  │ │ │   └── concat-map@0.0.1 </tspan>
<tspan x="10" y="250">  │ │ └── once@1.4.0 </tspan>
<tspan x="10" y="266">  │ ├── lazystream@0.1.0 </tspan>
<tspan x="10" y="282">  │ ├── lodash@3.2.0 </tspan>
<tspan x="10" y="298">  │ ├─┬ readable-stream@1.0.34 </tspan>
<tspan x="10" y="314">  │ │ ├── core-util-is@1.0.2 </tspan>
<tspan x="10" y="330">  │ │ ├── isarray@0.0.1 </tspan>
<tspan x="10" y="346">  │ │ └── string_decoder@0.10.31 </tspan>
<tspan x="10" y="362">  │ ├─┬ tar-stream@1.1.5 </tspan>
<tspan x="10" y="378">  │ │ ├── bl@0.9.5 </tspan>
<tspan x="10" y="394">  │ │ ├── end-of-stream@1.4.0 </tspan>
<tspan x="10" y="410">  │ │ └── xtend@4.0.1 </tspan>
<tspan x="10" y="426">  │ └─┬ zip-stream@0.5.2 </tspan>
<tspan x="10" y="442">  │   └─┬ compress-commons@0.2.9 </tspan>
<tspan x="10" y="458">  │     ├── crc32-stream@0.3.4 </tspan>
<tspan x="10" y="474">  │     └── node-int64@0.3.3 </tspan>
<tspan x="10" y="490">  ├── async@0.9.2 </tspan>
<tspan x="10" y="506">  ├─┬ cjson@0.3.3 </tspan>
<tspan x="10" y="522">  │ └─┬ json-parse-helpfulerror@1.0.3 </tspan>
<tspan x="10" y="538">  │   └── jju@1.3.0 </tspan>
<tspan x="10" y="554">  ├── colors@0.6.2 </tspan>
<tspan x="10" y="570">  ├── minimist@1.1.1 </tspan>
<tspan x="10" y="586">  ├─┬ nodemiral@1.1.1 </tspan>
<tspan x="10" y="602">  │ ├── async@0.9.0 </tspan>
<tspan x="10" y="618">  │ ├── debug@0.7.4 </tspan>
<tspan x="10" y="634">  │ ├── ejs@0.8.8 </tspan>
<tspan x="10" y="650">  │ ├── progress@1.1.5 </tspan>
<tspan x="10" y="666">  │ ├─┬ ssh2@0.4.6 </tspan>
<tspan x="10" y="682">  │ │ └─┬ ssh2-streams@0.0.23 </tspan>
<tspan x="10" y="698">  │ │   ├── asn1@0.2.3 </tspan>
<tspan x="10" y="714">  │ │   └── streamsearch@0.1.2 </tspan>
<tspan x="10" y="730">  │ └── underscore@1.8.3 </tspan>
<tspan x="10" y="746">  ├─┬ rimraf@2.6.1 </tspan>
<tspan x="10" y="762">  │ └─┬ glob@7.1.1 </tspan>
<tspan x="10" y="778">  │   ├── fs.realpath@1.0.0 </tspan>
<tspan x="10" y="794">  │   ├── minimatch@3.0.3 </tspan>
<tspan x="10" y="810">  │   └── path-is-absolute@1.0.1 </tspan>
<tspan x="10" y="826">  ├── underscore@1.7.0 </tspan>
<tspan x="10" y="842">  ├─┬ update-notifier@0.4.0 </tspan>
<tspan x="10" y="858">  │ ├─┬ chalk@1.1.3 </tspan>
<tspan x="10" y="874">  │ │ ├── ansi-styles@2.2.1 </tspan>
<tspan x="10" y="890">  │ │ ├── escape-string-regexp@1.0.5 </tspan>
<tspan x="10" y="906">  │ │ ├─┬ has-ansi@2.0.0 </tspan>
<tspan x="10" y="922">  │ │ │ └── ansi-regex@2.1.1 </tspan>
<tspan x="10" y="938">  │ │ ├── strip-ansi@3.0.1 </tspan>
<tspan x="10" y="954">  │ │ └── supports-color@2.0.0 </tspan>
<tspan x="10" y="970">  │ ├─┬ configstore@0.3.2 </tspan>
<tspan x="10" y="986">  │ │ ├─┬ graceful-fs@3.0.11 </tspan>
<tspan x="10" y="1002">  │ │ │ └── natives@1.1.0 </tspan>
<tspan x="10" y="1018">  │ │ ├─┬ js-yaml@3.8.3 </tspan>
<tspan x="10" y="1034">  │ │ │ ├─┬ argparse@1.0.9 </tspan>
<tspan x="10" y="1050">  │ │ │ │ └── sprintf-js@1.0.3 </tspan>
<tspan x="10" y="1066">  │ │ │ └── esprima@3.1.3 </tspan>
<tspan x="10" y="1082">  │ │ ├─┬ mkdirp@0.5.1 </tspan>
<tspan x="10" y="1098">  │ │ │ └── minimist@0.0.8 </tspan>
<tspan x="10" y="1114">  │ │ ├── object-assign@2.1.1 </tspan>
<tspan x="10" y="1130">  │ │ ├─┬ osenv@0.1.4 </tspan>
<tspan x="10" y="1146">  │ │ │ ├── os-homedir@1.0.2 </tspan>
<tspan x="10" y="1162">  │ │ │ └── os-tmpdir@1.0.2 </tspan>
<tspan x="10" y="1178">  │ │ ├── user-home@1.1.1 </tspan>
<tspan x="10" y="1194">  │ │ ├── uuid@2.0.3 </tspan>
<tspan x="10" y="1210">  │ │ └── xdg-basedir@1.0.1 </tspan>
<tspan x="10" y="1226">  │ ├── is-npm@1.0.0 </tspan>
<tspan x="10" y="1242">  │ ├─┬ latest-version@1.0.1 </tspan>
<tspan x="10" y="1258">  │ │ └─┬ package-json@1.2.0 </tspan>
<tspan x="10" y="1274">  │ │   ├─┬ got@3.3.1 </tspan>
<tspan x="10" y="1290">  │ │   │ ├─┬ duplexify@3.5.0 </tspan>
<tspan x="10" y="1306">  │ │   │ │ ├─┬ end-of-stream@1.0.0 </tspan>
<tspan x="10" y="1322">  │ │   │ │ │ └── once@1.3.3 </tspan>
<tspan x="10" y="1338">  │ │   │ │ ├─┬ readable-stream@2.2.9 </tspan>
<tspan x="10" y="1354">  │ │   │ │ │ ├── buffer-shims@1.0.0 </tspan>
<tspan x="10" y="1370">  │ │   │ │ │ ├── isarray@1.0.0 </tspan>
<tspan x="10" y="1386">  │ │   │ │ │ ├── process-nextick-args@1.0.7 </tspan>
<tspan x="10" y="1402">  │ │   │ │ │ ├── string_decoder@1.0.0 </tspan>
<tspan x="10" y="1418">  │ │   │ │ │ └── util-deprecate@1.0.2 </tspan>
<tspan x="10" y="1434">  │ │   │ │ └── stream-shift@1.0.0 </tspan>
<tspan x="10" y="1450">  │ │   │ ├── infinity-agent@2.0.3 </tspan>
<tspan x="10" y="1466">  │ │   │ ├── is-redirect@1.0.0 </tspan>
<tspan x="10" y="1482">  │ │   │ ├── is-stream@1.1.0 </tspan>
<tspan x="10" y="1498">  │ │   │ ├── lowercase-keys@1.0.0 </tspan>
<tspan x="10" y="1514">  │ │   │ ├── nested-error-stacks@1.0.2 </tspan>
<tspan x="10" y="1530">  │ │   │ ├── object-assign@3.0.0 </tspan>
<tspan x="10" y="1546">  │ │   │ ├── prepend-http@1.0.4 </tspan>
<tspan x="10" y="1562">  │ │   │ ├─┬ read-all-stream@3.1.0 </tspan>
<tspan x="10" y="1578">  │ │   │ │ ├─┬ pinkie-promise@2.0.1 </tspan>
<tspan x="10" y="1594">  │ │   │ │ │ └── pinkie@2.0.4 </tspan>
<tspan x="10" y="1610">  │ │   │ │ └─┬ readable-stream@2.2.9 </tspan>
<tspan x="10" y="1626">  │ │   │ │   ├── isarray@1.0.0 </tspan>
<tspan x="10" y="1642">  │ │   │ │   └── string_decoder@1.0.0 </tspan>
<tspan x="10" y="1658">  │ │   │ └── timed-out@2.0.0 </tspan>
<tspan x="10" y="1674">  │ │   └─┬ registry-url@3.1.0 </tspan>
<tspan x="10" y="1690">  │ │     └─┬ rc@1.2.1 </tspan>
<tspan x="10" y="1706">  │ │       ├── deep-extend@0.4.1 </tspan>
<tspan x="10" y="1722">  │ │       ├── ini@1.3.4 </tspan>
<tspan x="10" y="1738">  │ │       ├── minimist@1.2.0 </tspan>
<tspan x="10" y="1754">  │ │       └── strip-json-comments@2.0.1 </tspan>
<tspan x="10" y="1770">  │ ├─┬ repeating@1.1.3 </tspan>
<tspan x="10" y="1786">  │ │ └─┬ is-finite@1.0.2 </tspan>
<tspan x="10" y="1802">  │ │   └── number-is-nan@1.0.1 </tspan>
<tspan x="10" y="1818">  │ ├─┬ semver-diff@2.1.0 </tspan>
<tspan x="10" y="1834">  │ │ └── semver@5.3.0 </tspan>
<tspan x="10" y="1850">  │ └── string-length@1.0.1 </tspan>
<tspan x="10" y="1866">  └── uuid@1.4.2</tspan>
</text>
</svg>
